<svg xmlns="http://www.w3.org/2000/svg" viewBox="0 0 32 40" x="0px"
y="0px"><title>dark mode</title><g data-name="Layer 2"><path
d="M18.46,31a16,16,0,0,1-1.82-.1A15.28,15.28,0,0,1,3.1,17.7,14.56,14.56,0,0,1,6.77,6.19,15.82,15.82,0,0,1,27.78,4a3,3,0,0,1-1.2,5.35c-4.82,1-8.19,3.7-8.19,6.63s3.37,5.66,8.19,6.63A3,3,0,0,1,27.76,28,15.7,15.7,0,0,1,18.46,31Zm0-26A11.66,11.66,0,0,0,9.75,8.85a10.66,10.66,0,0,0-2.68,8.4,11.24,11.24,0,0,0,10,9.67,11.93,11.93,0,0,0,6.33-1c-5.48-1.79-9-5.59-9-9.93s3.54-8.14,9-9.93A11.84,11.84,0,0,0,18.46,5Zm7,2.25Z"/></g></svg>